<svg width="20" height="20" viewBox="0 0 20 20" fill="none" xmlns="http://www.w3.org/2000/svg">
<path d="M5.67761 9H13.1776" stroke="black" stroke-width="2" stroke-linecap="round"/>
<path fill-rule="evenodd" clip-rule="evenodd" d="M17.0971 16.7742H12.9038C11.8943 16.7742 10.7866 20 9.67807 20C8.57755 20 7.47615 16.7742 6.47286 16.7742H2.25899C1.01133 16.7742 0.000891826 15.7629 0.000891826 14.5161L0 2.2581C0 1.01133 1.01133 0 2.2581 0H17.0972C18.3439 0 19.3553 1.01133 19.3553 2.2581V14.5161C19.3553 15.7629 18.3448 16.7742 17.0972 16.7742H17.0971ZM18.0648 2.58083C18.0648 1.86826 17.4869 1.29037 16.7743 1.29037H2.5809C1.86833 1.29037 1.29044 1.86826 1.29044 2.58083V14.1941C1.29044 14.9067 1.86833 15.4846 2.5809 15.4846H7.11668C7.94786 15.4846 8.79241 18.3884 9.67715 18.3884C10.528 18.3884 11.4171 15.4846 12.218 15.4846H16.7743C17.4869 15.4846 18.0648 14.9067 18.0648 14.1941V2.58083Z" fill="#13151A"/>
</svg>
