<svg width="35" height="28" viewBox="0 0 35 28" fill="none" xmlns="http://www.w3.org/2000/svg">
<path d="M33.8257 14.9456L21.8093 26.962C21.3185 27.4528 20.5815 27.5993 19.9394 27.3338C19.2989 27.0682 18.8805 26.4422 18.8805 25.7486V20.6262C7.4466 21.0156 2.96311 25.211 2.91821 25.2559H2.9166C2.37428 25.7837 1.54873 25.8932 0.885702 25.5263C0.222675 25.1577 -0.121692 24.3998 0.0392237 23.6595C0.0746273 23.497 3.69226 8.02067 18.8803 6.92647V1.71586C18.8803 1.02226 19.2987 0.39627 19.9392 0.130713C20.5813 -0.134815 21.3184 0.011628 21.8092 0.502451L33.8256 12.5188C34.1474 12.8407 34.3293 13.2768 34.3293 13.7322C34.3293 14.1877 34.1475 14.6238 33.8256 14.9456L33.8257 14.9456Z" fill="#13151A"/>
</svg>
